<?xml version="1.0" encoding="UTF-8" standalone="no"?>
<!DOCTYPE svg PUBLIC "-//W3C//DTD SVG 1.1//EN"
 "http://www.w3.org/Graphics/SVG/1.1/DTD/svg11.dtd">
<!-- Generated by graphviz version 2.47.0 (20210316.0004)
 -->
<!-- Title: dependencies Pages: 1 -->
<svg width="504pt" height="284pt"
 viewBox="0.00 0.00 504.00 284.00" xmlns="http://www.w3.org/2000/svg" xmlns:xlink="http://www.w3.org/1999/xlink">
<g id="graph0" class="graph" transform="scale(1 1) rotate(0) translate(4 280)">
<title>dependencies</title>
<polygon fill="white" stroke="transparent" points="-4,4 -4,-280 500,-280 500,4 -4,4"/>
<text text-anchor="start" x="227.01" y="-42.4" font-family="Times-12" font-weight="bold" font-size="14.00">Legend</text>
<polygon fill="#ffffb3" stroke="transparent" points="14,-10 14,-30 34,-30 34,-10 14,-10"/>
<text text-anchor="start" x="37.63" y="-15.4" font-family="Times-12" font-size="14.00"> &#160;Declarations</text>
<polygon fill="#8dd3c7" stroke="transparent" points="127,-10 127,-30 147,-30 147,-10 127,-10"/>
<text text-anchor="start" x="150.73" y="-15.4" font-family="Times-12" font-size="14.00"> &#160;Module</text>
<polygon fill="#80b1d3" stroke="transparent" points="213,-10 213,-30 233,-30 233,-10 213,-10"/>
<text text-anchor="start" x="236.78" y="-15.4" font-family="Times-12" font-size="14.00"> &#160;Bootstrap</text>
<polygon fill="#fdb462" stroke="transparent" points="310,-10 310,-30 330,-30 330,-10 310,-10"/>
<text text-anchor="start" x="333.67" y="-15.4" font-family="Times-12" font-size="14.00"> &#160;Providers</text>
<polygon fill="#fb8072" stroke="transparent" points="406,-10 406,-30 426,-30 426,-10 406,-10"/>
<text text-anchor="start" x="429.73" y="-15.4" font-family="Times-12" font-size="14.00"> &#160;Exports</text>
<g id="clust1" class="cluster">
<title>cluster_PersonModule</title>
<polygon fill="none" stroke="black" stroke-dasharray="1,5" points="52,-70 52,-268 444,-268 444,-70 52,-70"/>
</g>
<g id="clust3" class="cluster">
<title>cluster_PersonModule_imports</title>
<polygon fill="none" stroke="black" points="216,-78 216,-130 436,-130 436,-78 216,-78"/>
</g>
<g id="clust4" class="cluster">
<title>cluster_PersonModule_exports</title>
<polygon fill="none" stroke="black" points="210,-208 210,-260 326,-260 326,-208 210,-208"/>
</g>
<g id="clust6" class="cluster">
<title>cluster_PersonModule_providers</title>
<polygon fill="none" stroke="black" points="60,-78 60,-130 208,-130 208,-78 60,-78"/>
</g>
<!-- PrismaModule -->
<g id="node1" class="node">
<title>PrismaModule</title>
<polygon fill="#8dd3c7" stroke="black" points="428.43,-122 425.43,-126 404.43,-126 401.43,-122 329.57,-122 329.57,-86 428.43,-86 428.43,-122"/>
<text text-anchor="middle" x="379" y="-99.8" font-family="Times,serif" font-size="14.00">PrismaModule</text>
</g>
<!-- PersonModule -->
<g id="node3" class="node">
<title>PersonModule</title>
<polygon fill="#8dd3c7" stroke="black" points="316.65,-187 313.65,-191 292.65,-191 289.65,-187 219.35,-187 219.35,-151 316.65,-151 316.65,-187"/>
<text text-anchor="middle" x="268" y="-164.8" font-family="Times,serif" font-size="14.00">PersonModule</text>
</g>
<!-- PrismaModule&#45;&gt;PersonModule -->
<g id="edge1" class="edge">
<title>PrismaModule&#45;&gt;PersonModule</title>
<path fill="none" stroke="black" d="M379,-122.11C379,-141.34 379,-169 379,-169 379,-169 326.69,-169 326.69,-169"/>
<polygon fill="black" stroke="black" points="326.69,-165.5 316.69,-169 326.69,-172.5 326.69,-165.5"/>
</g>
<!-- RbacModule -->
<g id="node2" class="node">
<title>RbacModule</title>
<polygon fill="#8dd3c7" stroke="black" points="312.32,-122 309.32,-126 288.32,-126 285.32,-122 223.68,-122 223.68,-86 312.32,-86 312.32,-122"/>
<text text-anchor="middle" x="268" y="-99.8" font-family="Times,serif" font-size="14.00">RbacModule</text>
</g>
<!-- RbacModule&#45;&gt;PersonModule -->
<g id="edge2" class="edge">
<title>RbacModule&#45;&gt;PersonModule</title>
<path fill="none" stroke="black" d="M268,-122.11C268,-122.11 268,-140.99 268,-140.99"/>
<polygon fill="black" stroke="black" points="264.5,-140.99 268,-150.99 271.5,-140.99 264.5,-140.99"/>
</g>
<!-- PersonService  -->
<g id="node4" class="node">
<title>PersonService </title>
<polygon fill="#fb8072" stroke="black" points="317.58,-252 218.42,-252 218.42,-216 317.58,-216 317.58,-252"/>
<text text-anchor="middle" x="268" y="-229.8" font-family="Times,serif" font-size="14.00">PersonService </text>
</g>
<!-- PersonModule&#45;&gt;PersonService  -->
<g id="edge3" class="edge">
<title>PersonModule&#45;&gt;PersonService </title>
<path fill="none" stroke="black" stroke-dasharray="5,2" d="M268,-187.11C268,-187.11 268,-205.99 268,-205.99"/>
<polygon fill="black" stroke="black" points="264.5,-205.99 268,-215.99 271.5,-205.99 264.5,-205.99"/>
</g>
<!-- PersonService -->
<g id="node5" class="node">
<title>PersonService</title>
<ellipse fill="#fdb462" stroke="black" cx="134" cy="-104" rx="66.05" ry="18"/>
<text text-anchor="middle" x="134" y="-99.8" font-family="Times,serif" font-size="14.00">PersonService</text>
</g>
<!-- PersonService&#45;&gt;PersonModule -->
<g id="edge4" class="edge">
<title>PersonService&#45;&gt;PersonModule</title>
<path fill="none" stroke="black" d="M134,-122.11C134,-141.34 134,-169 134,-169 134,-169 209.24,-169 209.24,-169"/>
<polygon fill="black" stroke="black" points="209.24,-172.5 219.24,-169 209.24,-165.5 209.24,-172.5"/>
</g>
</g>
</svg>
