<?xml version="1.0" encoding="UTF-8" standalone="no"?>
<!DOCTYPE svg PUBLIC "-//W3C//DTD SVG 1.1//EN"
 "http://www.w3.org/Graphics/SVG/1.1/DTD/svg11.dtd">
<!-- Generated by graphviz version 2.47.0 (20210316.0004)
 -->
<!-- Title: dependencies Pages: 1 -->
<svg width="2072pt" height="371pt"
 viewBox="0.00 0.00 2072.00 371.00" xmlns="http://www.w3.org/2000/svg" xmlns:xlink="http://www.w3.org/1999/xlink">
<g id="graph0" class="graph" transform="scale(1 1) rotate(0) translate(4 367)">
<title>dependencies</title>
<polygon fill="white" stroke="transparent" points="-4,4 -4,-367 2068,-367 2068,4 -4,4"/>
<text text-anchor="start" x="1011.01" y="-42.4" font-family="Times-12" font-weight="bold" font-size="14.00">Legend</text>
<polygon fill="#ffffb3" stroke="transparent" points="798,-10 798,-30 818,-30 818,-10 798,-10"/>
<text text-anchor="start" x="821.63" y="-15.4" font-family="Times-12" font-size="14.00"> &#160;Declarations</text>
<polygon fill="#8dd3c7" stroke="transparent" points="911,-10 911,-30 931,-30 931,-10 911,-10"/>
<text text-anchor="start" x="934.73" y="-15.4" font-family="Times-12" font-size="14.00"> &#160;Module</text>
<polygon fill="#80b1d3" stroke="transparent" points="997,-10 997,-30 1017,-30 1017,-10 997,-10"/>
<text text-anchor="start" x="1020.78" y="-15.4" font-family="Times-12" font-size="14.00"> &#160;Bootstrap</text>
<polygon fill="#fdb462" stroke="transparent" points="1094,-10 1094,-30 1114,-30 1114,-10 1094,-10"/>
<text text-anchor="start" x="1117.67" y="-15.4" font-family="Times-12" font-size="14.00"> &#160;Providers</text>
<polygon fill="#fb8072" stroke="transparent" points="1190,-10 1190,-30 1210,-30 1210,-10 1190,-10"/>
<text text-anchor="start" x="1213.73" y="-15.4" font-family="Times-12" font-size="14.00"> &#160;Exports</text>
<g id="clust1" class="cluster">
<title>cluster_AppModule</title>
<polygon fill="none" stroke="black" stroke-dasharray="1,5" points="8,-70 8,-347 424,-347 424,-70 8,-70"/>
</g>
<g id="clust3" class="cluster">
<title>cluster_AppModule_imports</title>
<polygon fill="none" stroke="black" points="186,-78 186,-271 416,-271 416,-78 186,-78"/>
</g>
<g id="clust6" class="cluster">
<title>cluster_AppModule_providers</title>
<polygon fill="none" stroke="black" points="48,-219 48,-271 178,-271 178,-219 48,-219"/>
</g>
<g id="clust7" class="cluster">
<title>cluster_AuthModule</title>
<polygon fill="none" stroke="black" stroke-dasharray="1,5" points="432,-211 432,-279 932,-279 932,-211 432,-211"/>
</g>
<g id="clust10" class="cluster">
<title>cluster_AuthModule_exports</title>
<polygon fill="none" stroke="black" points="714,-219 714,-271 924,-271 924,-219 714,-219"/>
</g>
<g id="clust12" class="cluster">
<title>cluster_AuthModule_providers</title>
<polygon fill="none" stroke="black" points="440,-219 440,-271 706,-271 706,-219 440,-219"/>
</g>
<g id="clust13" class="cluster">
<title>cluster_PersonModule</title>
<polygon fill="none" stroke="black" stroke-dasharray="1,5" points="432,-287 432,-355 720,-355 720,-287 432,-287"/>
</g>
<g id="clust16" class="cluster">
<title>cluster_PersonModule_exports</title>
<polygon fill="none" stroke="black" points="596,-295 596,-347 712,-347 712,-295 596,-295"/>
</g>
<g id="clust18" class="cluster">
<title>cluster_PersonModule_providers</title>
<polygon fill="none" stroke="black" points="440,-295 440,-347 588,-347 588,-295 440,-295"/>
</g>
<g id="clust19" class="cluster">
<title>cluster_PrismaModule</title>
<polygon fill="none" stroke="black" stroke-dasharray="1,5" points="432,-135 432,-203 722,-203 722,-135 432,-135"/>
</g>
<g id="clust22" class="cluster">
<title>cluster_PrismaModule_exports</title>
<polygon fill="none" stroke="black" points="598,-143 598,-195 714,-195 714,-143 598,-143"/>
</g>
<g id="clust24" class="cluster">
<title>cluster_PrismaModule_providers</title>
<polygon fill="none" stroke="black" points="440,-143 440,-195 590,-195 590,-143 440,-143"/>
</g>
<g id="clust25" class="cluster">
<title>cluster_RbacModule</title>
<polygon fill="none" stroke="black" stroke-dasharray="1,5" points="940,-211 940,-279 2056,-279 2056,-211 940,-211"/>
</g>
<g id="clust28" class="cluster">
<title>cluster_RbacModule_exports</title>
<polygon fill="none" stroke="black" points="1502,-219 1502,-271 2048,-271 2048,-219 1502,-219"/>
</g>
<g id="clust30" class="cluster">
<title>cluster_RbacModule_providers</title>
<polygon fill="none" stroke="black" points="948,-219 948,-271 1494,-271 1494,-219 948,-219"/>
</g>
<!-- AuthModule -->
<g id="node1" class="node">
<title>AuthModule</title>
<polygon fill="#8dd3c7" stroke="black" points="301.55,-187 298.55,-191 277.55,-191 274.55,-187 214.45,-187 214.45,-151 301.55,-151 301.55,-187"/>
<text text-anchor="middle" x="258" y="-164.8" font-family="Times,serif" font-size="14.00">AuthModule</text>
</g>
<!-- AppModule -->
<g id="node5" class="node">
<title>AppModule</title>
<polygon fill="#8dd3c7" stroke="black" points="154.66,-339 151.66,-343 130.66,-343 127.66,-339 71.34,-339 71.34,-303 154.66,-303 154.66,-339"/>
<text text-anchor="middle" x="113" y="-316.8" font-family="Times,serif" font-size="14.00">AppModule</text>
</g>
<!-- AuthModule&#45;&gt;AppModule -->
<g id="edge1" class="edge">
<title>AuthModule&#45;&gt;AppModule</title>
<path fill="none" stroke="black" d="M287.18,-187.02C287.18,-224.83 287.18,-309 287.18,-309 287.18,-309 164.72,-309 164.72,-309"/>
<polygon fill="black" stroke="black" points="164.72,-305.5 154.72,-309 164.72,-312.5 164.72,-305.5"/>
</g>
<!-- AuthService  -->
<g id="node7" class="node">
<title>AuthService </title>
<polygon fill="#fb8072" stroke="black" points="915.98,-263 826.02,-263 826.02,-227 915.98,-227 915.98,-263"/>
<text text-anchor="middle" x="871" y="-240.8" font-family="Times,serif" font-size="14.00">AuthService </text>
</g>
<!-- AuthModule&#45;&gt;AuthService  -->
<g id="edge7" class="edge">
<title>AuthModule&#45;&gt;AuthService </title>
<path fill="none" stroke="black" stroke-dasharray="5,2" d="M243.41,-187.06C243.41,-198.44 243.41,-211 243.41,-211 243.41,-211 871,-211 871,-211 871,-211 871,-216.81 871,-216.81"/>
<polygon fill="black" stroke="black" points="867.5,-216.81 871,-226.81 874.5,-216.81 867.5,-216.81"/>
</g>
<!-- JwtStrategy  -->
<g id="node8" class="node">
<title>JwtStrategy </title>
<polygon fill="#fb8072" stroke="black" points="807.6,-263 722.4,-263 722.4,-227 807.6,-227 807.6,-263"/>
<text text-anchor="middle" x="765" y="-240.8" font-family="Times,serif" font-size="14.00">JwtStrategy </text>
</g>
<!-- AuthModule&#45;&gt;JwtStrategy  -->
<g id="edge8" class="edge">
<title>AuthModule&#45;&gt;JwtStrategy </title>
<path fill="none" stroke="black" stroke-dasharray="5,2" d="M228.82,-187.18C228.82,-200.04 228.82,-215 228.82,-215 228.82,-215 765,-215 765,-215 765,-215 765,-216.86 765,-216.86"/>
<polygon fill="black" stroke="black" points="761.5,-216.86 765,-226.86 768.5,-216.86 761.5,-216.86"/>
</g>
<!-- PersonModule -->
<g id="node2" class="node">
<title>PersonModule</title>
<polygon fill="#8dd3c7" stroke="black" points="407.65,-263 404.65,-267 383.65,-267 380.65,-263 310.35,-263 310.35,-227 407.65,-227 407.65,-263"/>
<text text-anchor="middle" x="359" y="-240.8" font-family="Times,serif" font-size="14.00">PersonModule</text>
</g>
<!-- PersonModule&#45;&gt;AppModule -->
<g id="edge2" class="edge">
<title>PersonModule&#45;&gt;AppModule</title>
<path fill="none" stroke="black" d="M359,-263.2C359,-287.36 359,-327 359,-327 359,-327 164.73,-327 164.73,-327"/>
<polygon fill="black" stroke="black" points="164.73,-323.5 154.73,-327 164.73,-330.5 164.73,-323.5"/>
</g>
<!-- PersonService  -->
<g id="node11" class="node">
<title>PersonService </title>
<polygon fill="#fb8072" stroke="black" points="703.58,-339 604.42,-339 604.42,-303 703.58,-303 703.58,-339"/>
<text text-anchor="middle" x="654" y="-316.8" font-family="Times,serif" font-size="14.00">PersonService </text>
</g>
<!-- PersonModule&#45;&gt;PersonService  -->
<g id="edge13" class="edge">
<title>PersonModule&#45;&gt;PersonService </title>
<path fill="none" stroke="black" stroke-dasharray="5,2" d="M334.59,-263.11C334.59,-272.9 334.59,-283 334.59,-283 334.59,-283 651.26,-283 651.26,-283 651.26,-283 651.26,-292.89 651.26,-292.89"/>
<polygon fill="black" stroke="black" points="647.76,-292.89 651.26,-302.89 654.76,-292.89 647.76,-292.89"/>
</g>
<!-- PrismaModule -->
<g id="node3" class="node">
<title>PrismaModule</title>
<polygon fill="#8dd3c7" stroke="black" points="357.43,-122 354.43,-126 333.43,-126 330.43,-122 258.57,-122 258.57,-86 357.43,-86 357.43,-122"/>
<text text-anchor="middle" x="308" y="-99.8" font-family="Times,serif" font-size="14.00">PrismaModule</text>
</g>
<!-- PrismaModule&#45;&gt;AuthModule -->
<g id="edge6" class="edge">
<title>PrismaModule&#45;&gt;AuthModule</title>
<path fill="none" stroke="black" d="M280.28,-122.11C280.28,-122.11 280.28,-140.99 280.28,-140.99"/>
<polygon fill="black" stroke="black" points="276.78,-140.99 280.28,-150.99 283.78,-140.99 276.78,-140.99"/>
</g>
<!-- PrismaModule&#45;&gt;PersonModule -->
<g id="edge11" class="edge">
<title>PrismaModule&#45;&gt;PersonModule</title>
<path fill="none" stroke="black" d="M315.01,-122.14C315.01,-122.14 315.01,-216.93 315.01,-216.93"/>
<polygon fill="black" stroke="black" points="311.51,-216.92 315.01,-226.93 318.51,-216.93 311.51,-216.92"/>
</g>
<!-- RbacModule -->
<g id="node4" class="node">
<title>RbacModule</title>
<polygon fill="#8dd3c7" stroke="black" points="408.32,-187 405.32,-191 384.32,-191 381.32,-187 319.68,-187 319.68,-151 408.32,-151 408.32,-187"/>
<text text-anchor="middle" x="364" y="-164.8" font-family="Times,serif" font-size="14.00">RbacModule</text>
</g>
<!-- PrismaModule&#45;&gt;RbacModule -->
<g id="edge17" class="edge">
<title>PrismaModule&#45;&gt;RbacModule</title>
<path fill="none" stroke="black" d="M338.53,-122.11C338.53,-122.11 338.53,-140.99 338.53,-140.99"/>
<polygon fill="black" stroke="black" points="335.03,-140.99 338.53,-150.99 342.03,-140.99 335.03,-140.99"/>
</g>
<!-- PrismaModule&#45;&gt;AppModule -->
<g id="edge3" class="edge">
<title>PrismaModule&#45;&gt;AppModule</title>
<path fill="none" stroke="black" d="M304.57,-122.36C304.57,-173.69 304.57,-315 304.57,-315 304.57,-315 165.04,-315 165.04,-315"/>
<polygon fill="black" stroke="black" points="165.04,-311.5 155.04,-315 165.04,-318.5 165.04,-311.5"/>
</g>
<!-- PrismaService  -->
<g id="node13" class="node">
<title>PrismaService </title>
<polygon fill="#fb8072" stroke="black" points="706.36,-187 605.64,-187 605.64,-151 706.36,-151 706.36,-187"/>
<text text-anchor="middle" x="656" y="-164.8" font-family="Times,serif" font-size="14.00">PrismaService </text>
</g>
<!-- PrismaModule&#45;&gt;PrismaService  -->
<g id="edge15" class="edge">
<title>PrismaModule&#45;&gt;PrismaService </title>
<path fill="none" stroke="black" stroke-dasharray="5,2" d="M357.49,-98C453.57,-98 656,-98 656,-98 656,-98 656,-140.72 656,-140.72"/>
<polygon fill="black" stroke="black" points="652.5,-140.72 656,-150.72 659.5,-140.72 652.5,-140.72"/>
</g>
<!-- RbacModule&#45;&gt;PersonModule -->
<g id="edge12" class="edge">
<title>RbacModule&#45;&gt;PersonModule</title>
<path fill="none" stroke="black" d="M332.41,-187.01C332.41,-187.01 332.41,-216.85 332.41,-216.85"/>
<polygon fill="black" stroke="black" points="328.91,-216.85 332.41,-226.85 335.91,-216.85 328.91,-216.85"/>
</g>
<!-- RbacModule&#45;&gt;AppModule -->
<g id="edge4" class="edge">
<title>RbacModule&#45;&gt;AppModule</title>
<path fill="none" stroke="black" d="M319.66,-169C312.5,-169 307.37,-169 307.37,-169 307.37,-169 307.37,-321 307.37,-321 307.37,-321 164.7,-321 164.7,-321"/>
<polygon fill="black" stroke="black" points="164.7,-317.5 154.7,-321 164.7,-324.5 164.7,-317.5"/>
</g>
<!-- PermissionDiscoveryService  -->
<g id="node15" class="node">
<title>PermissionDiscoveryService </title>
<polygon fill="#fb8072" stroke="black" points="1825.73,-263 1644.27,-263 1644.27,-227 1825.73,-227 1825.73,-263"/>
<text text-anchor="middle" x="1735" y="-240.8" font-family="Times,serif" font-size="14.00">PermissionDiscoveryService </text>
</g>
<!-- RbacModule&#45;&gt;PermissionDiscoveryService  -->
<g id="edge18" class="edge">
<title>RbacModule&#45;&gt;PermissionDiscoveryService </title>
<path fill="none" stroke="black" stroke-dasharray="5,2" d="M357.55,-187.06C357.55,-191.49 357.55,-195 357.55,-195 357.55,-195 1735,-195 1735,-195 1735,-195 1735,-216.95 1735,-216.95"/>
<polygon fill="black" stroke="black" points="1731.5,-216.95 1735,-226.95 1738.5,-216.95 1731.5,-216.95"/>
</g>
<!-- PermissionGuard  -->
<g id="node16" class="node">
<title>PermissionGuard </title>
<polygon fill="#fb8072" stroke="black" points="1626.2,-263 1509.8,-263 1509.8,-227 1626.2,-227 1626.2,-263"/>
<text text-anchor="middle" x="1568" y="-240.8" font-family="Times,serif" font-size="14.00">PermissionGuard </text>
</g>
<!-- RbacModule&#45;&gt;PermissionGuard  -->
<g id="edge19" class="edge">
<title>RbacModule&#45;&gt;PermissionGuard </title>
<path fill="none" stroke="black" stroke-dasharray="5,2" d="M344.98,-187.14C344.98,-193.46 344.98,-199 344.98,-199 344.98,-199 1568,-199 1568,-199 1568,-199 1568,-216.82 1568,-216.82"/>
<polygon fill="black" stroke="black" points="1564.5,-216.82 1568,-226.82 1571.5,-216.82 1564.5,-216.82"/>
</g>
<!-- PermissionManagementService  -->
<g id="node17" class="node">
<title>PermissionManagementService </title>
<polygon fill="#fb8072" stroke="black" points="2040.28,-263 1843.72,-263 1843.72,-227 2040.28,-227 2040.28,-263"/>
<text text-anchor="middle" x="1942" y="-240.8" font-family="Times,serif" font-size="14.00">PermissionManagementService </text>
</g>
<!-- RbacModule&#45;&gt;PermissionManagementService  -->
<g id="edge20" class="edge">
<title>RbacModule&#45;&gt;PermissionManagementService </title>
<path fill="none" stroke="black" stroke-dasharray="5,2" d="M370.12,-187.17C370.12,-189.45 370.12,-191 370.12,-191 370.12,-191 1942,-191 1942,-191 1942,-191 1942,-216.72 1942,-216.72"/>
<polygon fill="black" stroke="black" points="1938.5,-216.72 1942,-226.72 1945.5,-216.72 1938.5,-216.72"/>
</g>
<!-- AppService -->
<g id="node6" class="node">
<title>AppService</title>
<ellipse fill="#fdb462" stroke="black" cx="113" cy="-245" rx="56.74" ry="18"/>
<text text-anchor="middle" x="113" y="-240.8" font-family="Times,serif" font-size="14.00">AppService</text>
</g>
<!-- AppService&#45;&gt;AppModule -->
<g id="edge5" class="edge">
<title>AppService&#45;&gt;AppModule</title>
<path fill="none" stroke="black" d="M113,-263.01C113,-263.01 113,-292.85 113,-292.85"/>
<polygon fill="black" stroke="black" points="109.5,-292.85 113,-302.85 116.5,-292.85 109.5,-292.85"/>
</g>
<!-- AuthService -->
<g id="node9" class="node">
<title>AuthService</title>
<ellipse fill="#fdb462" stroke="black" cx="639" cy="-245" rx="59.11" ry="18"/>
<text text-anchor="middle" x="639" y="-240.8" font-family="Times,serif" font-size="14.00">AuthService</text>
</g>
<!-- AuthService&#45;&gt;AuthModule -->
<g id="edge9" class="edge">
<title>AuthService&#45;&gt;AuthModule</title>
<path fill="none" stroke="black" d="M593.82,-233.22C593.82,-226.34 593.82,-219 593.82,-219 593.82,-219 272.59,-219 272.59,-219 272.59,-219 272.59,-197.05 272.59,-197.05"/>
<polygon fill="black" stroke="black" points="276.09,-197.05 272.59,-187.05 269.09,-197.05 276.09,-197.05"/>
</g>
<!-- JwtStrategy -->
<g id="node10" class="node">
<title>JwtStrategy</title>
<ellipse fill="#fdb462" stroke="black" cx="505" cy="-245" rx="56.76" ry="18"/>
<text text-anchor="middle" x="505" y="-240.8" font-family="Times,serif" font-size="14.00">JwtStrategy</text>
</g>
<!-- JwtStrategy&#45;&gt;AuthModule -->
<g id="edge10" class="edge">
<title>JwtStrategy&#45;&gt;AuthModule</title>
<path fill="none" stroke="black" d="M505,-226.83C505,-224.55 505,-223 505,-223 505,-223 258,-223 258,-223 258,-223 258,-197.28 258,-197.28"/>
<polygon fill="black" stroke="black" points="261.5,-197.28 258,-187.28 254.5,-197.28 261.5,-197.28"/>
</g>
<!-- PersonService -->
<g id="node12" class="node">
<title>PersonService</title>
<ellipse fill="#fdb462" stroke="black" cx="514" cy="-321" rx="66.05" ry="18"/>
<text text-anchor="middle" x="514" y="-316.8" font-family="Times,serif" font-size="14.00">PersonService</text>
</g>
<!-- PersonService&#45;&gt;PersonModule -->
<g id="edge14" class="edge">
<title>PersonService&#45;&gt;PersonModule</title>
<path fill="none" stroke="black" d="M464.26,-333C427.35,-333 383.41,-333 383.41,-333 383.41,-333 383.41,-273.23 383.41,-273.23"/>
<polygon fill="black" stroke="black" points="386.91,-273.23 383.41,-263.23 379.91,-273.23 386.91,-273.23"/>
</g>
<!-- PrismaService -->
<g id="node14" class="node">
<title>PrismaService</title>
<ellipse fill="#fdb462" stroke="black" cx="515" cy="-169" rx="66.63" ry="18"/>
<text text-anchor="middle" x="515" y="-164.8" font-family="Times,serif" font-size="14.00">PrismaService</text>
</g>
<!-- PrismaService&#45;&gt;PrismaModule -->
<g id="edge16" class="edge">
<title>PrismaService&#45;&gt;PrismaModule</title>
<path fill="none" stroke="black" d="M515,-150.98C515,-133.63 515,-110 515,-110 515,-110 367.32,-110 367.32,-110"/>
<polygon fill="black" stroke="black" points="367.32,-106.5 357.32,-110 367.32,-113.5 367.32,-106.5"/>
</g>
<!-- PermissionDiscoveryService -->
<g id="node18" class="node">
<title>PermissionDiscoveryService</title>
<ellipse fill="#fdb462" stroke="black" cx="1363" cy="-245" rx="122.69" ry="18"/>
<text text-anchor="middle" x="1363" y="-240.8" font-family="Times,serif" font-size="14.00">PermissionDiscoveryService</text>
</g>
<!-- PermissionDiscoveryService&#45;&gt;RbacModule -->
<g id="edge21" class="edge">
<title>PermissionDiscoveryService&#45;&gt;RbacModule</title>
<path fill="none" stroke="black" d="M1363,-226.94C1363,-215.56 1363,-203 1363,-203 1363,-203 395.26,-203 395.26,-203 395.26,-203 395.26,-197.19 395.26,-197.19"/>
<polygon fill="black" stroke="black" points="398.76,-197.19 395.26,-187.19 391.76,-197.19 398.76,-197.19"/>
</g>
<!-- PermissionManagementService -->
<g id="node19" class="node">
<title>PermissionManagementService</title>
<ellipse fill="#fdb462" stroke="black" cx="1089" cy="-245" rx="133.14" ry="18"/>
<text text-anchor="middle" x="1089" y="-240.8" font-family="Times,serif" font-size="14.00">PermissionManagementService</text>
</g>
<!-- PermissionManagementService&#45;&gt;RbacModule -->
<g id="edge22" class="edge">
<title>PermissionManagementService&#45;&gt;RbacModule</title>
<path fill="none" stroke="black" d="M1089,-226.89C1089,-217.1 1089,-207 1089,-207 1089,-207 382.69,-207 382.69,-207 382.69,-207 382.69,-197.11 382.69,-197.11"/>
<polygon fill="black" stroke="black" points="386.19,-197.11 382.69,-187.11 379.19,-197.11 386.19,-197.11"/>
</g>
</g>
</svg>
