<?xml version="1.0" encoding="UTF-8" standalone="no"?>
<!DOCTYPE svg PUBLIC "-//W3C//DTD SVG 1.1//EN"
 "http://www.w3.org/Graphics/SVG/1.1/DTD/svg11.dtd">
<!-- Generated by graphviz version 2.47.0 (20210316.0004)
 -->
<!-- Title: dependencies Pages: 1 -->
<svg width="708pt" height="284pt"
 viewBox="0.00 0.00 708.00 284.00" xmlns="http://www.w3.org/2000/svg" xmlns:xlink="http://www.w3.org/1999/xlink">
<g id="graph0" class="graph" transform="scale(1 1) rotate(0) translate(4 280)">
<title>dependencies</title>
<polygon fill="white" stroke="transparent" points="-4,4 -4,-280 704,-280 704,4 -4,4"/>
<text text-anchor="start" x="329.01" y="-42.4" font-family="Times-12" font-weight="bold" font-size="14.00">Legend</text>
<polygon fill="#ffffb3" stroke="transparent" points="116,-10 116,-30 136,-30 136,-10 116,-10"/>
<text text-anchor="start" x="139.63" y="-15.4" font-family="Times-12" font-size="14.00"> &#160;Declarations</text>
<polygon fill="#8dd3c7" stroke="transparent" points="229,-10 229,-30 249,-30 249,-10 229,-10"/>
<text text-anchor="start" x="252.73" y="-15.4" font-family="Times-12" font-size="14.00"> &#160;Module</text>
<polygon fill="#80b1d3" stroke="transparent" points="315,-10 315,-30 335,-30 335,-10 315,-10"/>
<text text-anchor="start" x="338.78" y="-15.4" font-family="Times-12" font-size="14.00"> &#160;Bootstrap</text>
<polygon fill="#fdb462" stroke="transparent" points="412,-10 412,-30 432,-30 432,-10 412,-10"/>
<text text-anchor="start" x="435.67" y="-15.4" font-family="Times-12" font-size="14.00"> &#160;Providers</text>
<polygon fill="#fb8072" stroke="transparent" points="508,-10 508,-30 528,-30 528,-10 508,-10"/>
<text text-anchor="start" x="531.73" y="-15.4" font-family="Times-12" font-size="14.00"> &#160;Exports</text>
<g id="clust1" class="cluster">
<title>cluster_RbacModule</title>
<polygon fill="none" stroke="black" stroke-dasharray="1,5" points="8,-70 8,-268 692,-268 692,-70 8,-70"/>
</g>
<g id="clust6" class="cluster">
<title>cluster_RbacModule_providers</title>
<polygon fill="none" stroke="black" points="138,-78 138,-130 684,-130 684,-78 138,-78"/>
</g>
<g id="clust3" class="cluster">
<title>cluster_RbacModule_imports</title>
<polygon fill="none" stroke="black" points="16,-78 16,-130 130,-130 130,-78 16,-78"/>
</g>
<g id="clust4" class="cluster">
<title>cluster_RbacModule_exports</title>
<polygon fill="none" stroke="black" points="16,-208 16,-260 563,-260 563,-208 16,-208"/>
</g>
<!-- PrismaModule -->
<g id="node1" class="node">
<title>PrismaModule</title>
<polygon fill="#8dd3c7" stroke="black" points="122.43,-122 119.43,-126 98.43,-126 95.43,-122 23.57,-122 23.57,-86 122.43,-86 122.43,-122"/>
<text text-anchor="middle" x="73" y="-99.8" font-family="Times,serif" font-size="14.00">PrismaModule</text>
</g>
<!-- RbacModule -->
<g id="node2" class="node">
<title>RbacModule</title>
<polygon fill="#8dd3c7" stroke="black" points="332.32,-187 329.32,-191 308.32,-191 305.32,-187 243.68,-187 243.68,-151 332.32,-151 332.32,-187"/>
<text text-anchor="middle" x="288" y="-164.8" font-family="Times,serif" font-size="14.00">RbacModule</text>
</g>
<!-- PrismaModule&#45;&gt;RbacModule -->
<g id="edge1" class="edge">
<title>PrismaModule&#45;&gt;RbacModule</title>
<path fill="none" stroke="black" d="M73,-122.02C73,-139.37 73,-163 73,-163 73,-163 233.71,-163 233.71,-163"/>
<polygon fill="black" stroke="black" points="233.71,-166.5 243.71,-163 233.71,-159.5 233.71,-166.5"/>
</g>
<!-- PermissionDiscoveryService  -->
<g id="node3" class="node">
<title>PermissionDiscoveryService </title>
<polygon fill="#fb8072" stroke="black" points="554.73,-252 373.27,-252 373.27,-216 554.73,-216 554.73,-252"/>
<text text-anchor="middle" x="464" y="-229.8" font-family="Times,serif" font-size="14.00">PermissionDiscoveryService </text>
</g>
<!-- RbacModule&#45;&gt;PermissionDiscoveryService  -->
<g id="edge2" class="edge">
<title>RbacModule&#45;&gt;PermissionDiscoveryService </title>
<path fill="none" stroke="black" stroke-dasharray="5,2" d="M332.16,-175C360.82,-175 392.85,-175 392.85,-175 392.85,-175 392.85,-205.98 392.85,-205.98"/>
<polygon fill="black" stroke="black" points="389.35,-205.98 392.85,-215.98 396.35,-205.98 389.35,-205.98"/>
</g>
<!-- PermissionGuard  -->
<g id="node4" class="node">
<title>PermissionGuard </title>
<polygon fill="#fb8072" stroke="black" points="355.2,-252 238.8,-252 238.8,-216 355.2,-216 355.2,-252"/>
<text text-anchor="middle" x="297" y="-229.8" font-family="Times,serif" font-size="14.00">PermissionGuard </text>
</g>
<!-- RbacModule&#45;&gt;PermissionGuard  -->
<g id="edge3" class="edge">
<title>RbacModule&#45;&gt;PermissionGuard </title>
<path fill="none" stroke="black" stroke-dasharray="5,2" d="M288,-187.11C288,-187.11 288,-205.99 288,-205.99"/>
<polygon fill="black" stroke="black" points="284.5,-205.99 288,-215.99 291.5,-205.99 284.5,-205.99"/>
</g>
<!-- PermissionManagementService  -->
<g id="node5" class="node">
<title>PermissionManagementService </title>
<polygon fill="#fb8072" stroke="black" points="220.28,-252 23.72,-252 23.72,-216 220.28,-216 220.28,-252"/>
<text text-anchor="middle" x="122" y="-229.8" font-family="Times,serif" font-size="14.00">PermissionManagementService </text>
</g>
<!-- RbacModule&#45;&gt;PermissionManagementService  -->
<g id="edge4" class="edge">
<title>RbacModule&#45;&gt;PermissionManagementService </title>
<path fill="none" stroke="black" stroke-dasharray="5,2" d="M243.79,-175C215.1,-175 183.03,-175 183.03,-175 183.03,-175 183.03,-205.98 183.03,-205.98"/>
<polygon fill="black" stroke="black" points="179.53,-205.98 183.03,-215.98 186.53,-205.98 179.53,-205.98"/>
</g>
<!-- PermissionDiscoveryService -->
<g id="node6" class="node">
<title>PermissionDiscoveryService</title>
<ellipse fill="#fdb462" stroke="black" cx="553" cy="-104" rx="122.69" ry="18"/>
<text text-anchor="middle" x="553" y="-99.8" font-family="Times,serif" font-size="14.00">PermissionDiscoveryService</text>
</g>
<!-- PermissionDiscoveryService&#45;&gt;RbacModule -->
<g id="edge5" class="edge">
<title>PermissionDiscoveryService&#45;&gt;RbacModule</title>
<path fill="none" stroke="black" d="M492.51,-119.81C492.51,-137.29 492.51,-163 492.51,-163 492.51,-163 342.38,-163 342.38,-163"/>
<polygon fill="black" stroke="black" points="342.38,-159.5 332.38,-163 342.38,-166.5 342.38,-159.5"/>
</g>
<!-- PermissionManagementService -->
<g id="node7" class="node">
<title>PermissionManagementService</title>
<ellipse fill="#fdb462" stroke="black" cx="279" cy="-104" rx="133.14" ry="18"/>
<text text-anchor="middle" x="279" y="-99.8" font-family="Times,serif" font-size="14.00">PermissionManagementService</text>
</g>
<!-- PermissionManagementService&#45;&gt;RbacModule -->
<g id="edge6" class="edge">
<title>PermissionManagementService&#45;&gt;RbacModule</title>
<path fill="none" stroke="black" d="M288,-122.11C288,-122.11 288,-140.99 288,-140.99"/>
<polygon fill="black" stroke="black" points="284.5,-140.99 288,-150.99 291.5,-140.99 284.5,-140.99"/>
</g>
</g>
</svg>
